<?xml version="1.0" encoding="UTF-8" standalone="no"?>
<svg width="50px" height="49px" viewBox="0 0 50 49" version="1.1" xmlns="http://www.w3.org/2000/svg" xmlns:xlink="http://www.w3.org/1999/xlink">
    <!-- Generator: Sketch 39 (31667) - http://www.bohemiancoding.com/sketch -->
    <title>crisis-icon</title>
    <desc>Created with Sketch.</desc>
    <defs>
        <filter x="-50%" y="-50%" width="200%" height="200%" filterUnits="objectBoundingBox" id="filter-1">
            <feOffset dx="0" dy="1" in="SourceAlpha" result="shadowOffsetOuter1"></feOffset>
            <feGaussianBlur stdDeviation="1" in="shadowOffsetOuter1" result="shadowBlurOuter1"></feGaussianBlur>
            <feColorMatrix values="0 0 0 0 0   0 0 0 0 0   0 0 0 0 0  0 0 0 0.3 0" type="matrix" in="shadowBlurOuter1" result="shadowMatrixOuter1"></feColorMatrix>
            <feMerge>
                <feMergeNode in="shadowMatrixOuter1"></feMergeNode>
                <feMergeNode in="SourceGraphic"></feMergeNode>
            </feMerge>
        </filter>
    </defs>
    <g id="Wireframes" stroke="none" stroke-width="1" fill="none" fill-rule="evenodd">
        <g id="get-help-mobile" transform="translate(-14.000000, -254.000000)" fill="#FFFFFF">
            <g id="next-steps" filter="url(#filter-1)" transform="translate(0.000000, 239.000000)">
                <path d="M40.9466951,45.5309168 L40.9466951,40.9466951 L36.4690832,40.9466951 L36.4690832,45.5309168 L40.9466951,45.5309168 Z M40.9466951,36.4690832 L40.9466951,22.8230277 L36.4690832,22.8230277 L36.4690832,36.4690832 L40.9466951,36.4690832 Z M56.9381663,16 C58.1464168,16 59.1947361,16.4442031 60.0831557,17.3326226 C60.9715752,18.2210421 61.4157783,19.2693614 61.4157783,20.4776119 L61.4157783,47.7697228 C61.4157783,48.9779733 60.9715752,50.0440608 60.0831557,50.9680171 C59.1947361,51.8919733 58.1464168,52.3539446 56.9381663,52.3539446 L25.0618337,52.3539446 L16,61.4157783 L16,20.4776119 C16,19.2693614 16.4442031,18.2210421 17.3326226,17.3326226 C18.2210421,16.4442031 19.2693614,16 20.4776119,16 L56.9381663,16 Z" id="crisis-icon"></path>
            </g>
        </g>
    </g>
</svg>