<?xml version="1.0" encoding="UTF-8" standalone="no"?>
<svg width="19px" height="20px" viewBox="0 0 19 20" version="1.1" xmlns="http://www.w3.org/2000/svg" xmlns:xlink="http://www.w3.org/1999/xlink">
    <!-- Generator: Sketch 39 (31667) - http://www.bohemiancoding.com/sketch -->
    <title>icon-facebook</title>
    <desc>Created with Sketch.</desc>
    <defs></defs>
    <g id="Symbols" stroke="none" stroke-width="1" fill="none" fill-rule="evenodd">
        <g id="mobile-footer-nav" transform="translate(-144.000000, -387.000000)" fill="#FFFFFF">
            <g id="footer-nav">
                <g id="follow" transform="translate(61.000000, 383.000000)">
                    <g id="social" transform="translate(83.000000, 4.000000)">
                        <path d="M17.6664172,0.432879997 L1.03490383,0.432879997 C0.462662889,0.432879997 0,0.895542886 0,1.46778383 L0,18.0992972 C0,18.6715381 0.462662889,19.134201 1.03490383,19.134201 L9.98377814,19.134201 L9.98377814,11.8898742 L7.5487103,11.8898742 L7.5487103,9.06519548 L9.98377814,9.06519548 L9.98377814,6.98321248 C9.98377814,4.57249532 11.4691695,3.25755869 13.6242046,3.25755869 C14.646933,3.25755869 15.5357328,3.33061072 15.7914149,3.36713674 L15.7914149,5.88743195 L14.3060235,5.89960729 C13.1250156,5.89960729 12.9058595,6.44749756 12.9058595,7.26324528 L12.9058595,9.06519548 L15.6940122,9.06519548 L15.328752,11.8898742 L12.9058595,11.8898742 L12.9058595,19.134201 L17.6664172,19.134201 C18.2386581,19.134201 18.701321,18.6715381 18.701321,18.0992972 L18.701321,1.46778383 C18.701321,0.895542886 18.2386581,0.432879997 17.6664172,0.432879997 L17.6664172,0.432879997 Z" id="icon-facebook"></path>
                    </g>
                </g>
            </g>
        </g>
    </g>
</svg>