<?xml version="1.0" encoding="UTF-8" standalone="no"?>
<svg width="29px" height="19px" viewBox="0 0 29 19" version="1.1" xmlns="http://www.w3.org/2000/svg" xmlns:xlink="http://www.w3.org/1999/xlink">
    <!-- Generator: Sketch 39 (31667) - http://www.bohemiancoding.com/sketch -->
    <title>icon-google</title>
    <desc>Created with Sketch.</desc>
    <defs></defs>
    <g id="Symbols" stroke="none" stroke-width="1" fill="none" fill-rule="evenodd">
        <g id="mobile-footer-nav" transform="translate(-231.000000, -388.000000)" fill="#FFFFFF">
            <g id="footer-nav">
                <g id="follow" transform="translate(61.000000, 383.000000)">
                    <g id="social" transform="translate(83.000000, 4.000000)">
                        <path d="M104.76869,10.5965819 C104.76869,10.0121656 104.707813,9.56167804 104.622586,9.11119049 L96.1972509,9.11119049 L96.1972509,12.179376 L101.262192,12.179376 C101.055211,13.4821373 99.7280993,16.0267831 96.1972509,16.0267831 C93.1534161,16.0267831 90.6696469,13.5064879 90.6696469,10.3896011 C90.6696469,7.27271427 93.1534161,4.75241906 96.1972509,4.75241906 C97.9383244,4.75241906 99.0949816,5.49511475 99.7524499,6.12823238 L102.175342,3.8027426 C100.616899,2.3417019 98.6079681,1.46507747 96.1972509,1.46507747 C91.2662385,1.46507747 87.2727273,5.45858873 87.2727273,10.3896011 C87.2727273,15.3206135 91.2662385,19.3141247 96.1972509,19.3141247 C101.347419,19.3141247 104.76869,15.698049 104.76869,10.5965819 L104.76869,10.5965819 Z M115.324709,9.11119049 L112.780063,9.11119049 L112.780063,6.5665446 L110.223242,6.5665446 L110.223242,9.11119049 L107.678596,9.11119049 L107.678596,11.6680117 L110.223242,11.6680117 L110.223242,14.2126576 L112.780063,14.2126576 L112.780063,11.6680117 L115.324709,11.6680117 L115.324709,9.11119049 Z" id="icon-google"></path>
                    </g>
                </g>
            </g>
        </g>
    </g>
</svg>