<?xml version="1.0" encoding="UTF-8" standalone="no"?>
<svg width="20px" height="19px" viewBox="0 0 20 19" version="1.1" xmlns="http://www.w3.org/2000/svg" xmlns:xlink="http://www.w3.org/1999/xlink">
    <!-- Generator: Sketch 39 (31667) - http://www.bohemiancoding.com/sketch -->
    <title>icon-flickr</title>
    <desc>Created with Sketch.</desc>
    <defs></defs>
    <g id="Symbols" stroke="none" stroke-width="1" fill="none" fill-rule="evenodd">
        <g id="mobile-footer-nav" transform="translate(-200.000000, -388.000000)" fill="#FFFFFF">
            <g id="footer-nav">
                <g id="follow" transform="translate(61.000000, 383.000000)">
                    <g id="social" transform="translate(83.000000, 4.000000)">
                        <path d="M72.1645203,1.0389406 L60.4761947,1.0389406 C58.5403157,1.0389406 56.969697,2.60955936 56.969697,4.54543829 L56.969697,16.2337639 C56.969697,18.1696428 58.5403157,19.7402616 60.4761947,19.7402616 L72.1645203,19.7402616 C74.1003992,19.7402616 75.671018,18.1696428 75.671018,16.2337639 L75.671018,4.54543829 C75.671018,2.60955936 74.1003992,1.0389406 72.1645203,1.0389406 L72.1645203,1.0389406 Z M65.4680837,10.3896011 C65.4680837,11.8141158 64.3114265,12.970773 62.8869118,12.970773 C61.4623971,12.970773 60.3057399,11.8141158 60.3057399,10.3896011 C60.3057399,8.96508642 61.4623971,7.80842919 62.8869118,7.80842919 C64.3114265,7.80842919 65.4680837,8.96508642 65.4680837,10.3896011 L65.4680837,10.3896011 Z M72.334975,10.3896011 C72.334975,11.8141158 71.1783178,12.970773 69.7538031,12.970773 C68.3292884,12.970773 67.1726312,11.8141158 67.1726312,10.3896011 C67.1726312,8.96508642 68.3292884,7.80842919 69.7538031,7.80842919 C71.1783178,7.80842919 72.334975,8.96508642 72.334975,10.3896011 L72.334975,10.3896011 Z" id="icon-flickr"></path>
                    </g>
                </g>
            </g>
        </g>
    </g>
</svg>