<?xml version="1.0" encoding="utf-8"?>
<!-- Generator: Adobe Illustrator 20.1.0, SVG Export Plug-In . SVG Version: 6.00 Build 0)  -->
<svg version="1.1" id="instagram" xmlns="http://www.w3.org/2000/svg" xmlns:xlink="http://www.w3.org/1999/xlink" x="0px" y="0px"
	 viewBox="0 0 73.5 73.5" style="enable-background:new 0 0 73.5 73.5;" xml:space="preserve">
<style type="text/css">
	.st0{fill:#FFFFFF;}
</style>
<path class="st0" d="M65.3,0H8.1C3.6,0,0,3.6,0,8.1v57.3c0,4.5,3.6,8.1,8.1,8.1h57.3c4.5,0,8.1-3.6,8.1-8.1V8.1
	C73.4,3.7,69.8,0,65.3,0z M36.7,22.7c7.7,0,14,6.3,14,14.1c0,7.7-6.3,14-14,14s-14.1-6.3-14.1-14S28.9,22.7,36.7,22.7z M64.8,62
	c0,1.6-1.3,2.9-2.9,2.9H11.5c-1.6,0-2.9-1.3-2.9-2.9V31.2H15c-0.4,1.8-0.7,3.6-0.7,5.5c0,12.5,10.1,22.6,22.5,22.6
	s22.5-10.1,22.5-22.6c0-1.9-0.2-3.7-0.7-5.5h6.2V62L64.8,62z M65,19.6c0,1.6-1.3,2.9-2.9,2.9h-8.4c-1.6,0-2.9-1.3-2.9-2.9v-8.3
	c0-1.6,1.3-2.9,2.9-2.9H62c1.6,0,2.9,1.3,2.9,2.9L65,19.6L65,19.6z"/>
</svg>
