<?xml version="1.0" encoding="UTF-8" standalone="no"?>
<svg width="37px" height="43px" viewBox="0 0 37 43" version="1.1" xmlns="http://www.w3.org/2000/svg" xmlns:xlink="http://www.w3.org/1999/xlink">
    <!-- Generator: Sketch 39 (31667) - http://www.bohemiancoding.com/sketch -->
    <title>file-pdf-o - FontAwesome</title>
    <desc>Created with Sketch.</desc>
    <defs></defs>
    <g id="Wireframes" stroke="none" stroke-width="1" fill="none" fill-rule="evenodd">
        <g id="legal-mobile" transform="translate(-83.000000, -320.000000)" fill="#736F78">
            <g id="privacy-and-terms" transform="translate(0.000000, 239.000000)">
                <g id="pdfs" transform="translate(64.000000, 81.000000)">
                    <g id="Group">
                        <path d="M53.5232948,8.9365477 L46.1859188,1.59917169 C45.3157813,0.729034155 43.5755062,0 42.3290929,0 L21.2576542,0 C20.0112409,0 19,1.01124092 19,2.25765416 L19,39.8852234 C19,41.1316367 20.0112409,42.1428776 21.2576542,42.1428776 L52.8648123,42.1428776 C54.1112256,42.1428776 55.1224665,41.1316367 55.1224665,39.8852234 L55.1224665,12.7933736 C55.1224665,11.5469603 54.3934323,9.80668524 53.5232948,8.9365477 L53.5232948,8.9365477 Z M43.0816443,3.19834339 C43.4814373,3.33944677 43.8812302,3.55110185 44.0458508,3.71572247 L51.406744,11.0766157 C51.5713646,11.2412363 51.7830197,11.6410292 51.9241231,12.0408222 L43.0816443,12.0408222 L43.0816443,3.19834339 Z M52.112261,39.132672 L22.0102055,39.132672 L22.0102055,3.01020554 L40.0714388,3.01020554 L40.0714388,12.7933736 C40.0714388,14.0397868 41.0826797,15.0510277 42.3290929,15.0510277 L52.112261,15.0510277 L52.112261,39.132672 Z M40.0244043,25.1869542 C38.6368877,24.0581271 37.4139917,22.0591625 36.5908886,19.5898532 C36.8730954,17.9671643 36.8966126,16.5561305 36.9201299,15.0745449 L36.9201299,14.369028 C36.9201299,14.2984763 36.9201299,14.2514419 36.8966126,14.1808902 C36.9436471,14.1338557 36.9671643,14.063304 36.9906816,13.9927523 C37.1317849,13.2402009 37.0612332,12.7228219 36.7790265,12.3935806 C36.5908886,12.1584083 36.3086819,12.0408222 35.9559234,12.0408222 L35.9324062,12.0408222 L35.4385443,12.0408222 C34.9681997,12.0408222 34.6154412,12.3935806 34.4508206,12.9815114 C34.0275105,14.5336486 34.2626828,17.1675785 35.0152342,19.7309566 C34.4508206,21.706404 33.6277176,23.7759203 32.5694422,25.8924711 C31.6287529,27.7973668 30.7821326,29.3259868 30.0530985,30.5253656 C30.0530985,30.5018483 30.0295812,30.4548139 30.006064,30.4312966 C29.8884779,30.2431588 29.6533055,30.1726071 29.4651677,30.2901933 C26.5490311,31.8188133 25.2791006,33.62964 25.0439283,34.7114326 C24.9733766,35.1817773 25.0674455,35.4404668 25.1850317,35.558053 C25.2320662,35.6050874 25.2555834,35.6521219 25.3261351,35.6756391 L25.8905486,35.9578459 C26.1022037,36.075432 26.3138588,36.1224665 26.5490311,36.1224665 C27.9600649,36.1224665 29.8179262,34.0999846 32.2402009,29.960952 C34.7565446,29.0908145 38.1900603,28.3617803 41.4589554,28.0090219 C43.4344028,29.04378 45.7155742,29.7257797 47.220677,29.7257797 C48.4670902,29.7257797 48.8198486,29.2554351 48.8904003,28.832125 L48.8904003,28.8086077 C48.9139176,28.7850905 48.9374348,28.738056 48.960952,28.7145388 C49.2196416,28.1501253 49.0785382,27.7268151 48.9139176,27.4916428 C48.3259868,26.5274363 46.3270222,26.3392985 44.7513677,26.3392985 C43.9047474,26.3392985 42.9875754,26.3863329 41.9998517,26.5039191 C41.2708176,26.0806089 40.6123351,25.6572988 40.0244043,25.1869542 L40.0244043,25.1869542 Z M26.4784794,34.852536 C26.8312379,34.0529502 27.9365477,32.500813 29.70034,31.1368136 C28.1952372,33.5120539 27.1839963,34.5232948 26.4784794,34.852536 L26.4784794,34.852536 Z M35.8383372,13.2166837 C35.8383372,13.1931665 35.8618545,13.1696492 35.8618545,13.1226148 C36.0029579,13.2872354 36.1440612,13.5459249 36.1675785,13.9692351 C36.1910957,14.0162696 36.1910957,14.063304 36.2146129,14.0868212 C36.1675785,14.1573729 36.1440612,14.2044074 36.120544,14.2749591 C36.0735096,14.5571659 36.0029579,14.8864071 35.9559234,15.2862 C35.9088889,15.591924 35.8618545,15.9446825 35.7913028,16.3209582 C35.6031649,15.0039932 35.6031649,13.8751662 35.8383372,13.2166837 L35.8383372,13.2166837 Z M32.9222006,28.7615733 C33.2749591,28.126608 33.6277176,27.4681256 33.980476,26.8096431 C34.8270963,25.1399197 35.4855788,23.6112997 35.9324062,22.1767486 C36.731992,23.8935065 37.7667502,25.3045403 38.9190945,26.3157813 C39.1307496,26.5039191 39.3659219,26.6685397 39.6010942,26.8566776 C37.2964056,27.2799877 34.9917169,27.9384702 32.9222006,28.7615733 L32.9222006,28.7615733 Z M48.1143317,28.3852976 C48.137849,28.4088148 48.1613662,28.432332 48.1613662,28.4558493 C48.0672973,28.4793665 47.9497111,28.4793665 47.738056,28.4793665 C47.0325391,28.4793665 45.9742637,28.2441942 44.8219194,27.820884 C47.3852976,27.820884 47.9967456,28.2677114 48.1143317,28.3852976 L48.1143317,28.3852976 Z" id="file-pdf-o---FontAwesome"></path>
                    </g>
                </g>
            </g>
        </g>
    </g>
</svg>