<?xml version="1.0" encoding="UTF-8" standalone="no"?>
<svg width="20px" height="17px" viewBox="0 0 20 17" version="1.1" xmlns="http://www.w3.org/2000/svg" xmlns:xlink="http://www.w3.org/1999/xlink">
    <!-- Generator: Sketch 39 (31667) - http://www.bohemiancoding.com/sketch -->
    <title>icon-twitter</title>
    <desc>Created with Sketch.</desc>
    <defs></defs>
    <g id="Symbols" stroke="none" stroke-width="1" fill="none" fill-rule="evenodd">
        <g id="mobile-footer-nav" transform="translate(-171.000000, -389.000000)" fill="#FFFFFF">
            <g id="footer-nav">
                <g id="follow" transform="translate(61.000000, 383.000000)">
                    <g id="social" transform="translate(83.000000, 4.000000)">
                        <path d="M46.3907162,4.44803558 C45.6845465,4.75241906 44.9175001,4.97157516 44.1261031,5.05680254 C44.9418508,4.56978897 45.5627931,3.8027426 45.8550012,2.88959216 C45.1001302,3.34007971 44.2478565,3.66881387 43.3590567,3.83926862 C42.6407117,3.07222225 41.6179832,2.59738402 40.4856766,2.59738402 C38.3062909,2.59738402 36.5530421,4.3628082 36.5530421,6.53001858 C36.5530421,6.83440206 36.5895681,7.13878554 36.6504448,7.43099368 C33.3874539,7.26053893 30.4775478,5.70209551 28.5416689,3.31572903 C28.2007594,3.90014531 28.005954,4.56978897 28.005954,5.30030932 C28.005954,6.66394731 28.6999483,7.86930589 29.7592028,8.57547556 C29.1139098,8.55112488 28.5051429,8.3684948 27.9816033,8.07628665 L27.9816033,8.12498801 C27.9816033,10.0365163 29.3330659,11.6193104 31.1350161,11.9845705 C30.806282,12.0697979 30.4531972,12.1184993 30.1001123,12.1184993 C29.8444302,12.1184993 29.6009234,12.0941486 29.3574166,12.0576226 C29.8566055,13.616066 31.3054709,14.7483725 33.0343691,14.7848985 C31.6829064,15.8441531 29.9905343,16.4650954 28.152058,16.4650954 C27.8233239,16.4650954 27.5189404,16.45292 27.2023816,16.416394 C28.9434551,17.5365252 31.0132628,18.1818182 33.2413498,18.1818182 C40.4735013,18.1818182 44.4304865,12.1915513 44.4304865,6.99268147 C44.4304865,6.82222672 44.4304865,6.65177197 44.4183112,6.48131722 C45.1853576,5.92125162 45.8550012,5.22725728 46.3907162,4.44803558 L46.3907162,4.44803558 Z" id="icon-twitter"></path>
                    </g>
                </g>
            </g>
        </g>
    </g>
</svg>