<?xml version="1.0" encoding="UTF-8" standalone="no"?>
<svg width="12px" height="10px" viewBox="0 0 12 10" version="1.1" xmlns="http://www.w3.org/2000/svg" xmlns:xlink="http://www.w3.org/1999/xlink">
    <!-- Generator: Sketch 39 (31667) - http://www.bohemiancoding.com/sketch -->
    <title>icon-email</title>
    <desc>Created with Sketch.</desc>
    <defs></defs>
    <g id="Symbols" stroke="none" stroke-width="1" fill="none" fill-rule="evenodd">
        <g id="mobile-footer-nav" transform="translate(-69.000000, -287.000000)" fill="#FFFFFF">
            <g id="footer-nav">
                <g id="quick-contact" transform="translate(69.000000, 253.000000)">
                    <path d="M11.1428704,42.785714 C11.1428704,42.8995535 11.0424239,43 10.9285845,43 L1.07142985,43 C0.957590427,43 0.857143879,42.8995535 0.857143879,42.785714 L0.857143879,37.6428508 C0.997769047,37.8035652 1.15178709,37.9508868 1.319198,38.0848156 C2.27678843,38.8214236 3.24107529,39.5714245 4.17187997,40.3482111 C4.67411271,40.7700866 5.29688131,41.2857122 5.99331072,41.2857122 L6.00000715,41.2857122 L6.00670359,41.2857122 C6.70313299,41.2857122 7.32590159,40.7700866 7.82813433,40.3482111 C8.75893901,39.5714245 9.72322588,38.8214236 10.6808163,38.0848156 C10.8482272,37.9508868 11.0022453,37.8035652 11.1428704,37.6428508 L11.1428704,42.785714 Z M11.1428704,35.7477592 C11.1428704,36.3169563 10.5937626,37.0602608 10.1584943,37.401779 C9.26117175,38.1049049 8.36384926,38.8147272 7.47322319,39.5245494 C7.11831206,39.8124962 6.47545415,40.4285684 6.00670359,40.4285684 L6.00000715,40.4285684 L5.99331072,40.4285684 C5.52456016,40.4285684 4.88170225,39.8124962 4.52679111,39.5245494 C3.63616505,38.8147272 2.73884255,38.1049049 1.84152005,37.401779 C1.23884076,36.926332 0.857143879,36.2633848 0.857143879,35.4999911 C0.857143879,35.3861516 0.957590427,35.2857051 1.07142985,35.2857051 L10.9285845,35.2857051 C11.183049,35.2857051 11.1428704,35.5803483 11.1428704,35.7477592 L11.1428704,35.7477592 Z M12.0000143,35.4999911 C12.0000143,34.9107046 11.5178709,34.4285612 10.9285845,34.4285612 L1.07142985,34.4285612 C0.482143432,34.4285612 0,34.9107046 0,35.4999911 L0,42.785714 C0,43.3750004 0.482143432,43.8571439 1.07142985,43.8571439 L10.9285845,43.8571439 C11.5178709,43.8571439 12.0000143,43.3750004 12.0000143,42.785714 L12.0000143,35.4999911 Z" id="icon-email"></path>
                </g>
            </g>
        </g>
    </g>
</svg>