<?xml version="1.0" encoding="UTF-8" standalone="no"?>
<svg width="10px" height="10px" viewBox="0 0 10 10" version="1.1" xmlns="http://www.w3.org/2000/svg" xmlns:xlink="http://www.w3.org/1999/xlink">
    <!-- Generator: Sketch 39 (31667) - http://www.bohemiancoding.com/sketch -->
    <title>icon-phone</title>
    <desc>Created with Sketch.</desc>
    <defs></defs>
    <g id="Symbols" stroke="none" stroke-width="1" fill="none" fill-rule="evenodd">
        <g id="mobile-footer-nav" transform="translate(-69.000000, -306.000000)" fill="#FFFFFF">
            <g id="footer-nav">
                <g id="quick-contact" transform="translate(69.000000, 253.000000)">
                    <path d="M9.42858267,61.0178548 C9.42858267,60.9709797 9.42858267,60.9241047 9.40849336,60.8772296 C9.3616183,60.7366044 9.03349291,60.5892828 8.89956418,60.5223185 C8.5178673,60.3080325 8.12947398,60.100443 7.75447353,59.8794606 C7.58036618,59.7723176 7.36608021,59.5714245 7.15849068,59.5714245 C6.75000805,59.5714245 6.15402519,60.7834795 5.79241762,60.7834795 C5.61161383,60.7834795 5.37723855,60.6160686 5.21652408,60.5223185 C3.99777262,59.8459784 3.15402162,59.0022274 2.47768153,57.7834759 C2.38393141,57.6227614 2.2165205,57.3883862 2.2165205,57.2075824 C2.2165205,56.8459748 3.42857552,56.249992 3.42857552,55.8415093 C3.42857552,55.6339198 3.22768242,55.4196338 3.12053943,55.2455265 C2.89955703,54.870526 2.69196749,54.4821327 2.47768153,54.1004358 C2.41071716,53.9665071 2.26339556,53.6383817 2.12277039,53.5915066 C2.07589533,53.5714173 2.02902028,53.5714173 1.98214522,53.5714173 C1.7410735,53.5714173 1.27232295,53.6785603 1.05134054,53.7790069 C0.723215148,53.919632 0.508929178,54.2946325 0.341518264,54.5959721 C0.127232295,54.9910619 0,55.3928481 0,55.8415093 C0,56.4642779 0.254464589,57.0267786 0.462054122,57.5959757 C0.609375726,58.0044583 0.790179513,58.3995481 1.01785836,58.7678521 C1.72098419,59.9062463 3.09375369,61.2790158 4.2321479,61.9821416 C4.60045191,62.2098205 4.99554167,62.3906243 5.4040243,62.5379459 C5.97322141,62.7455354 6.53572208,63 7.15849068,63 C7.60715193,63 8.00893812,62.8727677 8.40402788,62.6584817 C8.70536752,62.4910708 9.08036797,62.2767849 9.22099314,61.9486595 C9.32143968,61.7276771 9.42858267,61.2589265 9.42858267,61.0178548 L9.42858267,61.0178548 Z" id="icon-phone"></path>
                </g>
            </g>
        </g>
    </g>
</svg>