<?xml version="1.0" encoding="utf-8"?>
<!-- Generator: Adobe Illustrator 20.1.0, SVG Export Plug-In . SVG Version: 6.00 Build 0)  -->
<svg version="1.1" id="Layer_1" xmlns="http://www.w3.org/2000/svg" xmlns:xlink="http://www.w3.org/1999/xlink" x="0px" y="0px"
	 viewBox="0 0 20.3 20.3" style="enable-background:new 0 0 20.3 20.3;" xml:space="preserve">
<style type="text/css">
	.st0{fill:#FFFFFF;}
	.st1{opacity:0;fill:#FFFFFF;stroke:#000000;stroke-miterlimit:10;}
</style>
<title>icon-twitter</title>
<desc>Created with Sketch.</desc>
<g id="Symbols">
	<g id="mobile-footer-nav" transform="translate(-171.000000, -389.000000)">
		<g id="footer-nav">
			<g id="follow" transform="translate(61.000000, 383.000000)">
				<g id="social" transform="translate(83.000000, 4.000000)">
					<path id="icon-twitter" class="st0" d="M46.9,4.9c-0.7,0.3-1.5,0.5-2.3,0.6c0.8-0.5,1.4-1.3,1.7-2.2c-0.8,0.5-1.6,0.8-2.5,0.9
						c-0.7-0.8-1.7-1.2-2.9-1.2c-2.2,0-3.9,1.8-3.9,3.9c0,0.3,0,0.6,0.1,0.9C33.9,7.8,31,6.2,29,3.8c-0.3,0.6-0.5,1.3-0.5,2
						c0,1.4,0.7,2.6,1.8,3.3c-0.6,0-1.3-0.2-1.8-0.5v0c0,1.9,1.4,3.5,3.2,3.9c-0.3,0.1-0.7,0.1-1,0.1c-0.3,0-0.5,0-0.7-0.1
						c0.5,1.6,1.9,2.7,3.7,2.7c-1.4,1.1-3,1.7-4.9,1.7c-0.3,0-0.6,0-0.9,0c1.7,1.1,3.8,1.8,6,1.8c7.2,0,11.2-6,11.2-11.2
						c0-0.2,0-0.3,0-0.5C45.7,6.4,46.4,5.7,46.9,4.9L46.9,4.9z"/>
				</g>
			</g>
		</g>
	</g>
</g>
<rect x="0.5" y="0.5" class="st1" width="19.3" height="19.3"/>
</svg>
