<?xml version="1.0" encoding="utf-8"?>
<!-- Generator: Adobe Illustrator 20.1.0, SVG Export Plug-In . SVG Version: 6.00 Build 0)  -->
<svg version="1.1" id="youtube" xmlns="http://www.w3.org/2000/svg" xmlns:xlink="http://www.w3.org/1999/xlink" x="0px" y="0px"
	 viewBox="0 0 100 100" style="enable-background:new 0 0 100 100;" xml:space="preserve">
<style type="text/css">
	.st0{fill:#FFFFFF;}
	.st1{opacity:0;fill:#FFFFFF;}
</style>
<path class="st0" d="M85.5,32.3c-0.8-4-4.1-7-7.9-7.4c-9.2-0.6-18.4-1.1-27.5-1.1c-9.2,0-18.3,0.5-27.5,1c-3.9,0.4-7.2,3.4-7.9,7.4
	c-0.9,5.8-1.3,11.7-1.3,17.5s0.4,11.7,1.3,17.5c0.7,4,4.1,7.4,7.9,7.7c9.2,0.6,18.3,1.2,27.5,1.2s18.4-0.5,27.5-1.1
	c3.8-0.4,7.2-3.8,7.9-7.8c0.9-5.8,1.3-11.6,1.3-17.5C86.8,43.9,86.3,38.1,85.5,32.3z M41.7,60.3V39l19.9,10.7L41.7,60.3z"/>
<rect x="13.4" y="14" class="st1" width="73.4" height="73.4"/>
</svg>
