<?xml version="1.0" encoding="UTF-8" standalone="no"?>
<svg width="12px" height="13px" viewBox="0 0 12 13" version="1.1" xmlns="http://www.w3.org/2000/svg" xmlns:xlink="http://www.w3.org/1999/xlink">
    <!-- Generator: Sketch 39 (31667) - http://www.bohemiancoding.com/sketch -->
    <title>icon-fax</title>
    <desc>Created with Sketch.</desc>
    <defs></defs>
    <g id="Symbols" stroke="none" stroke-width="1" fill="none" fill-rule="evenodd">
        <g id="mobile-footer-nav" transform="translate(-69.000000, -325.000000)" fill="#FFFFFF">
            <g id="footer-nav">
                <g id="quick-contact" transform="translate(69.000000, 253.000000)">
                    <path d="M1.92857373,75.2857051 L1.07142985,75.2857051 C0.482143432,75.2857051 0,75.7678485 0,76.3571349 L0,83.6428579 C0,84.2321443 0.482143432,84.7142878 1.07142985,84.7142878 L1.92857373,84.7142878 C2.51786014,84.7142878 3.00000358,84.2321443 3.00000358,83.6428579 L3.00000358,76.3571349 C3.00000358,75.7678485 2.51786014,75.2857051 1.92857373,75.2857051 L1.92857373,75.2857051 Z M11.1428704,76.3772242 L11.1428704,75.2857051 C11.1428704,74.930794 10.9352809,74.4352576 10.6875127,74.1874895 L9.66965438,73.1696311 C9.42188623,72.921863 8.92634993,72.7142735 8.57143879,72.7142735 L4.07143342,72.7142735 C3.71652229,72.7142735 3.42857552,73.0022202 3.42857552,73.3571314 L3.42857552,83.6428579 C3.42857552,84.2321443 3.91071895,84.7142878 4.50000536,84.7142878 L10.2857265,84.7142878 C11.2299241,84.7142878 12.0000143,83.9441976 12.0000143,83 L12.0000143,77.8571367 C12.0000143,77.2276717 11.6517996,76.6718675 11.1428704,76.3772242 L11.1428704,76.3772242 Z M6.21429312,83 C6.21429312,83.1205359 6.12054301,83.214286 6.00000715,83.214286 L5.14286327,83.214286 C5.02232742,83.214286 4.9285773,83.1205359 4.9285773,83 L4.9285773,82.1428561 C4.9285773,82.0223203 5.02232742,81.9285702 5.14286327,81.9285702 L6.00000715,81.9285702 C6.12054301,81.9285702 6.21429312,82.0223203 6.21429312,82.1428561 L6.21429312,83 Z M6.21429312,81.2857122 C6.21429312,81.4062481 6.12054301,81.4999982 6.00000715,81.4999982 L5.14286327,81.4999982 C5.02232742,81.4999982 4.9285773,81.4062481 4.9285773,81.2857122 L4.9285773,80.4285684 C4.9285773,80.3080325 5.02232742,80.2142824 5.14286327,80.2142824 L6.00000715,80.2142824 C6.12054301,80.2142824 6.21429312,80.3080325 6.21429312,80.4285684 L6.21429312,81.2857122 Z M6.21429312,79.5714245 C6.21429312,79.6919603 6.12054301,79.7857105 6.00000715,79.7857105 L5.14286327,79.7857105 C5.02232742,79.7857105 4.9285773,79.6919603 4.9285773,79.5714245 L4.9285773,78.7142806 C4.9285773,78.5937447 5.02232742,78.4999946 5.14286327,78.4999946 L6.00000715,78.4999946 C6.12054301,78.4999946 6.21429312,78.5937447 6.21429312,78.7142806 L6.21429312,79.5714245 Z M7.92858088,83 C7.92858088,83.1205359 7.83483077,83.214286 7.71429491,83.214286 L6.85715103,83.214286 C6.73661517,83.214286 6.64286506,83.1205359 6.64286506,83 L6.64286506,82.1428561 C6.64286506,82.0223203 6.73661517,81.9285702 6.85715103,81.9285702 L7.71429491,81.9285702 C7.83483077,81.9285702 7.92858088,82.0223203 7.92858088,82.1428561 L7.92858088,83 Z M7.92858088,81.2857122 C7.92858088,81.4062481 7.83483077,81.4999982 7.71429491,81.4999982 L6.85715103,81.4999982 C6.73661517,81.4999982 6.64286506,81.4062481 6.64286506,81.2857122 L6.64286506,80.4285684 C6.64286506,80.3080325 6.73661517,80.2142824 6.85715103,80.2142824 L7.71429491,80.2142824 C7.83483077,80.2142824 7.92858088,80.3080325 7.92858088,80.4285684 L7.92858088,81.2857122 Z M7.92858088,79.5714245 C7.92858088,79.6919603 7.83483077,79.7857105 7.71429491,79.7857105 L6.85715103,79.7857105 C6.73661517,79.7857105 6.64286506,79.6919603 6.64286506,79.5714245 L6.64286506,78.7142806 C6.64286506,78.5937447 6.73661517,78.4999946 6.85715103,78.4999946 L7.71429491,78.4999946 C7.83483077,78.4999946 7.92858088,78.5937447 7.92858088,78.7142806 L7.92858088,79.5714245 Z M9.64286864,83 C9.64286864,83.1205359 9.54911853,83.214286 9.42858267,83.214286 L8.57143879,83.214286 C8.45090293,83.214286 8.35715282,83.1205359 8.35715282,83 L8.35715282,82.1428561 C8.35715282,82.0223203 8.45090293,81.9285702 8.57143879,81.9285702 L9.42858267,81.9285702 C9.54911853,81.9285702 9.64286864,82.0223203 9.64286864,82.1428561 L9.64286864,83 Z M9.64286864,81.2857122 C9.64286864,81.4062481 9.54911853,81.4999982 9.42858267,81.4999982 L8.57143879,81.4999982 C8.45090293,81.4999982 8.35715282,81.4062481 8.35715282,81.2857122 L8.35715282,80.4285684 C8.35715282,80.3080325 8.45090293,80.2142824 8.57143879,80.2142824 L9.42858267,80.2142824 C9.54911853,80.2142824 9.64286864,80.3080325 9.64286864,80.4285684 L9.64286864,81.2857122 Z M9.64286864,79.5714245 C9.64286864,79.6919603 9.54911853,79.7857105 9.42858267,79.7857105 L8.57143879,79.7857105 C8.45090293,79.7857105 8.35715282,79.6919603 8.35715282,79.5714245 L8.35715282,78.7142806 C8.35715282,78.5937447 8.45090293,78.4999946 8.57143879,78.4999946 L9.42858267,78.4999946 C9.54911853,78.4999946 9.64286864,78.5937447 9.64286864,78.7142806 L9.64286864,79.5714245 Z M10.2857265,76.9999928 L4.28571939,76.9999928 L4.28571939,73.5714173 L8.57143879,73.5714173 L8.57143879,74.6428472 C8.57143879,74.9977583 8.85938556,75.2857051 9.2142967,75.2857051 L10.2857265,75.2857051 L10.2857265,76.9999928 Z" id="icon-fax"></path>
                </g>
            </g>
        </g>
    </g>
</svg>