<?xml version="1.0" encoding="utf-8"?>
<!-- Generator: Adobe Illustrator 20.1.0, SVG Export Plug-In . SVG Version: 6.00 Build 0)  -->
<svg version="1.1" id="vimeo" xmlns="http://www.w3.org/2000/svg" xmlns:xlink="http://www.w3.org/1999/xlink" x="0px" y="0px"
	 viewBox="0 0 100 100" style="enable-background:new 0 0 100 100;" xml:space="preserve">
<style type="text/css">
	.st0{fill:#FFFFFF;}
	.st1{opacity:0;fill:#FFFFFF;}
</style>
<path class="st0" d="M13.2,35.4l3,3.9c0,0,6.2-4.9,8.2-2.4c2.1,2.4,9.9,31.7,12.5,37.1c2.3,4.7,8.6,11,15.5,6.5s29.8-24.1,34-47.2
	c4.1-23.1-27.6-18.3-31,1.9c8.4-5,12.9,2,8.6,10.1c-4.3,8-8.2,13.3-10.3,13.3c-2,0-3.6-5.4-6-14.7c-2.4-9.7-2.4-27.2-12.5-25.2
	C25.8,20.5,13.2,35.4,13.2,35.4L13.2,35.4z"/>
<rect x="13.2" y="12.9" class="st1" width="73.1" height="73.1"/>
</svg>
