<?xml version="1.0" encoding="UTF-8" standalone="no"?>
<svg width="300px" height="300px" viewBox="0 0 300 300" version="1.1" xmlns="http://www.w3.org/2000/svg" xmlns:xlink="http://www.w3.org/1999/xlink">
    <!-- Generator: Sketch 39.1 (31720) - http://www.bohemiancoding.com/sketch -->
    <title>camp-amped</title>
    <desc>Created with Sketch.</desc>
    <defs></defs>
    <g id="Page-1" stroke="none" stroke-width="1" fill="none" fill-rule="evenodd">
        <g id="camp-amped">
            <polygon id="Fill-1" fill="#000000" points="0 299.94 300 299.94 300 0 0 0"></polygon>
            <path d="M135.88,29.13 C139.66,28.5 143.75,27.04 147.45,28.79 C150.53,30.51 152.66,33.42 154.95,36.01 C158.09,39.8 161.82,43.32 163.57,48.05 C164.72,50.84 164.72,53.9 164.88,56.87 C162.72,54.32 160.3,51.96 157.31,50.4 C157.31,53.64 157.07,56.87 156.4,60.04 C155.19,56.22 154.63,52.14 152.31,48.76 C151.9,54.09 153.07,60.06 157.17,63.79 C161.09,65.71 166.29,61.77 169.76,65.19 C174.9,70.8 175.03,78.93 174.13,86.05 C173.33,92.89 180.37,96.31 182.85,101.86 C185.24,101.16 187.52,100 190.01,99.67 C192.46,100.32 194.39,102.1 196.59,103.29 C203.98,102.2 211.46,101.98 218.89,101.41 C221.91,101.31 224.32,99.42 226.73,97.84 C226.37,97.38 225.65,96.45 225.29,95.99 C226.99,95.31 228.74,94.71 230.59,94.59 C230.28,95.28 229.68,96.67 229.38,97.36 C230.21,97.29 231.86,97.16 232.69,97.09 C232.61,96.37 232.46,94.93 232.39,94.2 C233.91,94.23 235.43,94.23 236.96,94.13 C236.83,94.67 236.56,95.75 236.43,96.29 C237.4,96.08 239.33,95.65 240.3,95.44 C239.56,94.93 238.08,93.9 237.34,93.39 C238.93,91.86 241.17,92.28 243.17,92.15 L243.01,93.77 C242.31,93.55 240.91,93.11 240.2,92.89 C240.14,93.34 240.02,94.24 239.96,94.69 C241.96,94.59 243.97,94.63 245.97,94.84 C247.23,98.8 247.42,102.98 248.13,107.05 C247.57,107.34 246.45,107.92 245.89,108.21 C245.14,108.27 243.63,108.39 242.88,108.45 C243.21,109.48 243.63,110.49 244.13,111.46 C244.71,110.41 245.24,109.33 245.92,108.34 C246.19,109.04 246.73,110.44 247,111.13 C245.52,111.42 244.03,111.64 242.53,111.8 C242.46,110.93 242.31,109.19 242.24,108.32 C241.43,108.38 239.83,108.49 239.03,108.55 C239.6,109.45 240.15,110.37 240.66,111.32 C239.14,111.62 237.58,111.76 236.05,111.96 C237.09,109.54 235.15,108.98 233.21,108.57 C233.34,109.7 233.48,110.82 233.64,111.95 C232.13,111.87 230.62,111.81 229.12,111.78 C229.19,111.23 229.33,110.14 229.4,109.6 C226.69,109.86 224.47,108.31 222.04,107.49 C212.9,108.49 203.76,109.46 194.69,110.93 C194.33,111.63 193.97,112.34 193.61,113.05 C190.36,113.7 187.26,115.19 183.89,115.13 C181.4,115.01 179.55,112.82 177.03,112.87 C168.96,112.72 160.79,113.57 153.05,115.93 C156.15,119.09 160.5,120.6 164.03,123.25 C169.52,126.13 173.64,130.83 178.87,134.11 C182.99,138.33 189.5,138.99 193.37,143.5 C198.19,148.74 203.6,153.42 209.18,157.84 C215.26,163.1 221.86,167.73 228,172.9 C229.92,174.3 229.73,176.8 229.91,178.9 C236.24,181.22 241.7,175.75 247.86,175.45 C248.14,177.39 248.63,179.6 246.97,181.1 C242.91,185.37 237.14,187.34 231.9,189.75 C231.54,193.52 228.25,196.56 224.46,196.55 C221.14,194.94 218.86,191.84 216.73,188.93 C210.18,188.95 206.09,183.48 201.33,179.9 C193.82,174.28 187.62,167.12 182.12,159.58 C179.53,155.84 175.31,153.9 171.49,151.69 C163.57,147.05 155.92,141.95 148.2,136.99 C146.03,135.5 143.49,134.72 140.88,134.49 C139.82,136.51 138.65,138.47 137.23,140.26 C133,145.73 130.98,152.48 127.21,158.22 C127.25,158.89 127.33,160.22 127.37,160.88 C119.31,159.84 110.74,159.47 103.57,155.23 C99.91,153.11 97.6,149.21 97.14,145.05 C96.99,141.37 92.03,140.05 92.36,136.16 C92.32,130.74 91.3,125.3 92.06,119.89 C92.86,114.97 99.43,112.89 103.23,115.92 C103.74,118.86 103.57,122.45 106.32,124.37 C107.44,118.17 107.46,111.85 107.26,105.57 C102.38,103.46 97.3,101.35 93.5,97.5 C91.5,95.78 93.11,93.04 94.34,91.36 C97.2,87.89 99.85,84.22 103.14,81.13 C108.85,75.17 114.09,68.21 121.8,64.72 C126.37,62.43 131.29,65.07 136.04,64.81 C136.96,64.48 139.15,65.17 138.85,63.55 C136.53,61.18 134.68,58.44 132.7,55.8 C132.57,58.33 132.66,60.86 132.63,63.39 C130.82,59.35 130.24,54.95 129.74,50.59 C127.96,52.82 125.97,54.91 123.41,56.25 C128.43,49.83 126.43,41.2 129.33,34.02 C130.35,31.27 133.06,29.54 135.88,29.13" id="Fill-2" fill="#FEFEFE"></path>
            <path d="M105.34,93.58 C110.64,89.66 115.65,85.24 119,79.46 C120.42,82.94 121.2,86.64 122.42,90.19 C117.31,89.09 109.54,88.87 107.62,95.04 C106.86,94.56 106.09,94.07 105.34,93.58" id="Fill-3" fill="#000000"></path>
            <path d="M109.35,95.92 C109.62,93.09 112,90.65 114.9,90.7 C123.33,90.2 130.19,96 138,98.1 C140.89,99.23 143.27,96.83 145.63,95.6 C148.91,93.59 152.72,92.7 156.52,92.46 C158.58,97.04 156.69,101.91 153.89,105.67 C152.74,105.95 151.58,106.23 150.43,106.51 C148.9,110.62 149.55,115 150.85,119.06 C153.38,123.38 157.87,126.18 160.04,130.76 C154.5,130.45 149.6,127.65 144.61,125.52 C141.34,124.12 138.21,122.42 135.32,120.36 C137.52,118.72 140.4,117.3 140.48,114.13 L144.95,113.65 C142.23,112.8 139.54,112.78 136.92,113.57 L137.84,115.02 L136.03,114.87 C137.45,112.66 138.09,108.65 142.45,111.87 L136.73,110.25 C140.7,109.58 144.73,109.65 148.74,109.57 C145.16,108.99 141.46,109.38 137.84,109.43 C137.31,108.49 136.79,107.54 136.28,106.6 C130.33,103.26 123.01,104.46 117.23,100.8 C114.53,99.3 111.95,97.59 109.35,95.92" id="Fill-4" fill="#000000"></path>
            <path d="M165.04,91.16 C165.55,93.47 165.98,95.8 166.53,98.1 C169.44,100.04 172.01,102.41 174.81,104.5 C168.39,105.19 161.99,106.36 155.51,106.2 C158.02,100.77 162.31,96.46 165.04,91.16" id="Fill-5" fill="#000000"></path>
            <path d="M234.22,95.23 C237.12,93.48 234.56,98.59 234.22,95.23" id="Fill-6" fill="#000000"></path>
            <path d="M227.51,95.82 C228.87,95.37 229.33,95.88 228.9,97.36 C227.53,97.76 227.06,97.24 227.51,95.82" id="Fill-7" fill="#000000"></path>
            <path d="M227.98,98.82 C233.18,97.68 238.55,97.36 243.64,95.64 C245.27,99.3 245.57,103.31 245.58,107.27 C241.02,107.92 236.43,108.17 231.85,108.57 C231.18,107.58 230.54,106.55 229.87,105.57 C230.06,106.48 230.46,108.32 230.66,109.23 C227.73,108.27 224,107.77 222.21,104.91 C220.85,101.17 225.19,99.62 227.98,98.82" id="Fill-8" fill="#000000"></path>
            <path d="M234.85,99.91 C236.46,99.31 237.04,99.81 236.6,101.44 C234.97,102.02 234.39,101.51 234.85,99.91" id="Fill-9" fill="#FEFEFE"></path>
            <path d="M229.16,101.02 C232.07,99.45 229.26,104.4 229.16,101.02" id="Fill-10" fill="#FEFEFE"></path>
            <path d="M209.65,103.54 C213.23,103.52 216.8,103.04 220.34,102.56 C220.59,103.72 220.83,104.87 221.08,106.03 C217.47,106.36 213.86,106.76 210.31,107.46 L210.33,106.4 C209.29,106.76 208.27,107.13 207.23,107.48 C205.25,107.47 203.27,107.52 201.29,107.55 L201.88,108.57 C199.2,108.7 196.52,108.86 193.85,108.95 C193.55,107.61 193.24,106.27 192.95,104.93 C195.22,104.82 197.47,104.71 199.74,104.72 C199,105.27 197.51,106.37 196.77,106.92 C199.8,105.67 203.09,105.75 206.31,105.6 C204.21,105.12 201.92,105.23 200.01,104.11 C203.04,104.3 206.12,104.47 209.12,103.86 C211.17,104.54 213.29,105.14 215.48,105.02 L209.65,103.54" id="Fill-11" fill="#000000"></path>
            <path d="M185.04,107.5 C183.73,107.16 183.25,104.92 184.88,104.66 C187.06,103.96 186.98,107.8 185.04,107.5" id="Fill-12" fill="#000000"></path>
            <path d="M235.69,104.97 C238.3,102.83 238.04,108.48 235.61,106.31 C235.63,105.98 235.67,105.3 235.69,104.97" id="Fill-13" fill="#FEFEFE"></path>
            <path d="M108.49,105.43 C110.42,106.09 112.34,106.73 114.26,107.41 C114.01,110.13 113.93,112.88 114.49,115.57 C115.85,115.63 117.2,115.67 118.56,115.69 C118.52,113.68 118.48,111.66 118.55,109.65 C121.91,112.73 124.56,116.54 128.37,119.1 L128.61,118.8 L128.82,119.09 C121.79,122.3 115.29,126.86 107.66,128.65 C107.01,125.01 108.69,121.58 108.71,117.97 C108.8,113.79 108.43,109.61 108.49,105.43" id="Fill-14" fill="#000000"></path>
            <path d="M169.97,106.51 C173.84,106.07 177.74,106.3 181.63,106.11 C181.44,106.55 181.06,107.43 180.86,107.87 C180.08,107.97 178.51,108.16 177.73,108.26 C177.81,109.3 177.89,110.35 177.98,111.39 C175.63,111.39 173.13,112.01 170.92,110.92 C166.49,110.54 161.97,109.72 157.54,110.53 C161.12,110.89 164.71,110.75 168.3,111.1 C163.62,111.75 158.91,112.04 154.22,112.44 C154.31,110.93 154.4,109.41 154.48,107.9 C159,107.53 163.54,106.9 168.08,107.34 C171.41,107.63 174.76,107.95 178.1,107.49 C175.41,106.99 172.67,106.91 169.97,106.51" id="Fill-15" fill="#000000"></path>
            <path d="M115.82,107.97 C118.63,108.98 117.14,112.2 116.83,114.34 C115.29,112.53 115.68,110.14 115.82,107.97" id="Fill-16" fill="#000000"></path>
            <path d="M130.39,108.93 C131.95,108.77 133.52,108.65 135.09,108.55 C135.39,109.26 136.01,110.69 136.32,111.4 C135.07,111.57 133.29,112.99 132.41,111.45 C131.71,110.63 131.03,109.79 130.39,108.93" id="Fill-17" fill="#000000"></path>
            <path d="M159.89,108.62 C165.36,108.14 170.91,108.37 176.3,109.47 C170.82,109.9 165.32,109.3 159.89,108.62" id="Fill-18" fill="#FEFEFE"></path>
            <path d="M237.24,109.49 C240.62,109.44 236.02,112.61 237.24,109.49" id="Fill-19" fill="#000000"></path>
            <path d="M230.22,109.83 C233.26,108.29 230.3,113.19 230.22,109.83" id="Fill-20" fill="#000000"></path>
            <path d="M113.34,132.16 C114.21,131.45 115.09,130.75 115.97,130.06 C115.92,131.83 115.85,133.6 115.76,135.38 C114.94,134.31 114.14,133.23 113.34,132.16" id="Fill-21" fill="#000000"></path>
            <path d="M98.18,142.25 C99.48,143.82 100.69,145.5 102.44,146.62 C107.01,149.73 110.87,153.76 114.45,157.95 C109.28,157.26 104.54,154.68 100.72,151.21 C98.72,148.7 98.26,145.37 98.18,142.25" id="Fill-22" fill="#000000"></path>
            <path d="M69.55,161.56 C71.42,159.36 73.97,157.7 76.86,157.31 C82.53,156.43 88.3,156.93 94.01,156.73 C98.11,156.78 103.12,156.58 105.97,160.11 C108.43,163.74 108.51,168.54 107.48,172.68 L108.51,172.72 C108.51,173.61 108.53,175.41 108.53,176.3 C111.77,171.12 114.63,165.71 117.64,160.39 C124.28,160.95 131.18,162.88 137.7,160.65 C144.28,161.22 150.69,162.92 156.95,164.95 C154.05,162.75 150.49,162.39 147.15,161.43 C147.18,159.88 147.22,158.33 147.26,156.79 C152.96,156.84 158.66,156.84 164.36,156.8 C167,161.31 169.56,165.87 172.18,170.38 C174.84,166.23 177,161.78 179.72,157.67 C185.54,165.3 191.45,173.02 199.07,178.97 C202.43,181.53 205.57,184.38 208.88,187 C208.87,187.23 208.86,187.68 208.85,187.9 C203.52,189.31 197.68,188.21 192.14,188.54 C187.83,195.84 183.92,203.38 179.33,210.51 C175.21,203.29 171.23,195.97 166.89,188.88 C164.92,188 162.35,188.8 160.19,188.65 L160.48,186.55 C161.09,186.44 162.31,186.22 162.92,186.11 C162.26,185.46 160.69,184.9 161.45,183.7 C164.66,177.51 161.66,169.48 155.56,166.41 C149.4,163.47 142.57,162.48 135.89,161.44 C140.13,167.19 143.33,173.65 146.78,179.89 C146.83,174.64 147,169.4 147.22,164.15 C151.63,165.56 156.78,166.6 159.52,170.75 C162.52,174.46 163.03,180.12 160.05,183.99 C158.66,185.49 157.15,186.87 155.88,188.48 C153.74,188.54 151.61,188.55 149.48,188.55 C149.49,200.09 149.44,211.63 149.51,223.17 C153.19,223.15 156.87,223.15 160.55,223.16 C160.54,214.92 160.53,206.68 160.55,198.45 C165.58,206.67 170.32,215.06 175.49,223.19 C178.23,223.15 180.98,223.16 183.72,223.12 C188.69,214.77 193.92,206.58 198.84,198.2 C198.86,206.51 198.86,214.83 198.84,223.15 C202.5,223.16 206.17,223.15 209.83,223.17 C209.94,211.52 209.77,199.87 209.92,188.23 C212.08,188.68 214.22,189.23 216.39,189.65 C216.32,200.82 216.39,211.98 216.36,223.15 C220.07,223.16 223.78,223.16 227.5,223.16 C227.51,220.33 227.52,217.5 227.5,214.67 C234.64,214.64 241.79,214.74 248.94,214.64 C252.44,214.59 256.32,213.34 258.07,210.06 C260.05,206.03 259.92,201.31 259.24,196.97 C258.71,193.79 256.56,190.94 253.51,189.78 C248.13,187.89 242.36,188.76 236.78,188.55 C241.25,185.94 246.69,184 249.12,179.03 C252.33,182.47 255.51,185.94 258.7,189.4 C262.63,193.53 262.7,199.72 262.13,205.04 C261.8,208.74 259.94,212.11 257.03,214.4 C258.56,221.64 261.12,228.65 262.27,235.96 C262.31,241.28 263.11,247 260.83,251.98 C258.42,256.63 252.61,257.42 247.91,257.56 C225.39,257.62 202.87,257.55 180.35,257.6 C180.09,253.7 179.71,249.81 179.57,245.91 C177.49,248.52 174.51,250.47 171.11,250.6 C165.78,250.91 160.45,250.66 155.12,250.71 C155.12,252.99 155.12,255.26 155.14,257.54 C145.61,257.62 136.08,257.57 126.55,257.58 C126.54,253.21 126.61,248.85 126.49,244.48 C123.89,248.86 121.18,253.16 118.6,257.55 C115.26,257.59 111.92,257.58 108.58,257.58 C106.54,253.97 104.33,250.47 102.33,246.85 C101.68,250.4 101.4,254 100.92,257.58 C92.12,257.58 83.33,257.6 74.53,257.57 C73.59,255.9 72.63,254.23 71.71,252.55 C66.72,252.54 61.74,252.56 56.76,252.53 C55.89,254.21 55,255.87 54.12,257.55 C48.76,257.61 43.41,257.57 38.05,257.58 C40.92,246.07 43.8,234.56 46.7,223.05 C41.72,220.26 40.05,214.34 40.17,208.98 C40.29,202.5 38.85,194.87 43.68,189.63 C52.25,180.23 61.01,171 69.55,161.56" id="Fill-23" fill="#FEFEFE"></path>
            <path d="M127.47,159.44 C128.13,156.34 131.04,156.77 133.49,156.7 C133.94,157.4 134.84,158.8 135.29,159.5 C132.68,159.37 130.07,159.34 127.47,159.44" id="Fill-24" fill="#FEFEFE"></path>
            <path d="M209.44,156.93 C213.63,156.77 217.83,156.77 222.03,156.85 C225.49,156.96 229.26,157.63 231.72,160.29 C236.26,165.15 240.8,170.01 245.3,174.91 C240.63,176.65 235.99,179.35 230.82,178.71 C230.49,176.55 230.42,174.03 228.58,172.51 C222.39,167.1 215.36,162.66 209.44,156.93" id="Fill-25" fill="#FEFEFE"></path>
            <path d="M128.28,160.3 C130.13,159.94 133.26,159.5 134.52,160.77 C132.75,161.01 129.21,162 128.28,160.3" id="Fill-26" fill="#FEFEFE"></path>
            <path d="M157.65,187.08 C158.3,186.1 159.18,185.8 160.27,186.2 C159.92,186.66 159.22,187.59 158.87,188.06 C158.55,188 157.9,187.87 157.58,187.81 L157.65,187.08" id="Fill-27" fill="#FEFEFE"></path>
            <path d="M44.94,192.96 C47.79,189.28 52.79,188.67 57.12,188.58 C64.72,188.58 72.32,188.28 79.92,188.56 C82.61,188.77 85.7,189.25 87.44,191.57 C89.48,194.3 89.45,197.88 89.62,201.13 C86.03,201.09 82.44,201.1 78.85,201.11 C78.23,199.23 77.29,197.1 75,197 C70.33,196.67 65.63,196.98 60.96,196.89 C58.67,197.02 55.52,196.85 54.53,199.45 C53.92,203.4 53.95,207.5 54.5,211.45 C55.04,214.43 58.53,214.65 60.94,214.72 C65.95,214.71 70.99,214.89 75.98,214.44 C78.37,214.17 78.8,211.65 79.23,209.75 C82.92,209.72 86.61,209.73 90.3,209.74 C89.99,213.18 90.34,217.09 88.17,220.03 C85.69,222.95 81.49,222.96 77.98,223.16 C71,223.15 64.01,223.19 57.03,223.13 C53.04,222.9 48.4,222.67 45.54,219.47 C42.96,216.26 42.93,211.89 42.78,207.98 C42.81,202.96 42.06,197.39 44.94,192.96" id="Fill-28" fill="#000000"></path>
            <path d="M91.38,223.16 C97.97,211.66 104.43,200.09 110.95,188.55 C115.79,188.56 120.64,188.57 125.49,188.55 C132.2,200.05 138.74,211.65 145.45,223.16 C141.41,223.16 137.37,223.12 133.33,223.2 C132,221.09 130.76,218.92 129.43,216.81 C122.15,216.96 114.86,216.74 107.59,216.9 C105.66,218.44 105.08,221.11 103.81,223.16 C99.67,223.15 95.52,223.16 91.38,223.16" id="Fill-29" fill="#000000"></path>
            <path d="M118.22,196.84 C120.65,201.05 123.04,205.29 125.29,209.59 C120.62,209.65 115.94,209.63 111.27,209.59 C113.67,205.39 115.99,201.14 118.22,196.84" id="Fill-30" fill="#FEFEFE"></path>
            <path d="M227.53,196.92 C232.32,196.93 237.12,196.77 241.92,196.97 C243.83,197.16 246.14,197.08 247.45,198.79 C248.58,201.29 248.61,205.84 245.02,206.11 C239.2,206.48 233.35,206.11 227.52,206.26 C227.52,203.14 227.51,200.03 227.53,196.92" id="Fill-31" fill="#FEFEFE"></path>
            <path d="M42.09,255.36 C47.27,246 52.61,236.73 57.85,227.4 C61.78,227.4 65.71,227.38 69.65,227.44 C74.98,236.76 80.32,246.08 85.73,255.36 C82.42,255.35 79.12,255.36 75.82,255.37 C74.86,253.69 73.9,252 72.93,250.33 C66.85,250.33 60.77,250.29 54.68,250.34 C53.81,252.01 52.94,253.68 52.07,255.36 C48.74,255.36 45.42,255.37 42.09,255.36" id="Fill-32" fill="#000000"></path>
            <path d="M89.11,227.36 C93.78,227.45 98.44,227.35 103.11,227.46 C106.34,233.45 109.85,239.29 113.16,245.24 C116.68,239.37 120.05,233.42 123.35,227.43 C128.17,227.36 132.99,227.42 137.8,227.38 C137.83,236.71 137.79,246.04 137.82,255.37 C134.83,255.36 131.85,255.36 128.86,255.35 C128.86,248.63 128.87,241.9 128.86,235.18 C124.91,241.95 120.67,248.54 116.7,255.3 C114.4,255.36 112.11,255.36 109.82,255.36 C105.88,248.68 101.92,242.01 97.87,235.4 C97.79,242.06 97.86,248.71 97.86,255.37 C94.94,255.35 92.03,255.35 89.12,255.4 C88.76,246.06 88.79,236.7 89.11,227.36" id="Fill-33" fill="#000000"></path>
            <path d="M143.12,227.36 C151.45,227.5 159.79,227.27 168.13,227.46 C171.53,227.6 175.49,228.67 176.99,232.08 C178.48,235.91 178.53,240.35 177,244.18 C175.93,246.94 172.91,248.32 170.1,248.44 C164.09,248.63 158.07,248.46 152.06,248.51 C152.07,250.78 152.08,253.06 152.1,255.34 C149.1,255.37 146.11,255.36 143.11,255.38 C143.11,246.04 143.07,236.7 143.12,227.36" id="Fill-34" fill="#000000"></path>
            <path d="M182.64,227.4 C193.32,227.38 204.01,227.42 214.7,227.38 C214.7,229.67 214.7,231.97 214.69,234.27 C207.03,234.21 199.36,234.26 191.69,234.23 C191.67,235.7 191.65,237.18 191.63,238.66 C198.92,238.65 206.22,238.67 213.51,238.65 C213.5,240.53 213.5,242.41 213.49,244.3 C206.19,244.3 198.9,244.23 191.6,244.34 C191.63,245.38 191.68,247.46 191.7,248.5 L215.27,248.5 C215.27,250.79 215.27,253.08 215.26,255.38 C204.39,255.34 193.53,255.37 182.66,255.37 C182.64,246.04 182.66,236.72 182.64,227.4" id="Fill-35" fill="#000000"></path>
            <path d="M220.08,227.38 C229.74,227.45 239.39,227.33 249.05,227.44 C252.86,227.44 257.54,228.8 258.56,232.99 C259.79,238.54 259.69,244.47 258.56,250.03 C257.25,254.49 251.96,255.17 248,255.31 C238.7,255.43 229.4,255.33 220.09,255.36 C220.08,246.03 220.11,236.71 220.08,227.38" id="Fill-36" fill="#000000"></path>
            <path d="M152.08,234.23 C156.7,234.33 161.35,233.97 165.96,234.48 C169.62,234.68 169.8,241.72 165.87,241.6 C161.28,241.82 156.67,241.6 152.07,241.68 C152.07,239.2 152.08,236.71 152.08,234.23" id="Fill-37" fill="#FEFEFE"></path>
            <path d="M229.14,234.24 C234.82,234.33 240.5,234.04 246.16,234.39 C247.86,234.43 249.62,235.39 250.07,237.14 C250.58,240.52 250.34,243.99 249.42,247.29 C242.95,249.7 235.87,247.98 229.14,248.52 C229.14,243.76 229.15,239 229.14,234.24" id="Fill-38" fill="#FEFEFE"></path>
            <path d="M58.13,244.46 C59.96,241.04 61.75,237.6 63.82,234.32 C65.78,237.66 67.6,241.09 69.51,244.46 C65.72,244.43 61.93,244.41 58.13,244.46" id="Fill-39" fill="#FEFEFE"></path>
        </g>
    </g>
</svg>